<svg width="210" height="150" viewBox="0 0 210 150" fill="none" xmlns="http://www.w3.org/2000/svg">
<rect width="210" height="150" fill="#004562"/>
<g filter="url(#filter0_d_955_4)">
<path d="M61.1404 98.808C61.8444 98.872 62.6444 98.936 63.5404 99C64.5004 99 65.6204 99 66.9004 99C74.3884 99 79.9244 97.112 83.5084 93.336C87.1564 89.56 88.9804 84.344 88.9804 77.688C88.9804 70.712 87.2524 65.432 83.7964 61.848C80.3404 58.264 74.8684 56.472 67.3804 56.472C66.3564 56.472 65.3004 56.504 64.2124 56.568C63.1244 56.568 62.1004 56.632 61.1404 56.76V98.808ZM104.436 77.688C104.436 83.448 103.54 88.472 101.748 92.76C99.9564 97.048 97.3964 100.6 94.0684 103.416C90.8044 106.232 86.8044 108.344 82.0684 109.752C77.3324 111.16 72.0204 111.864 66.1324 111.864C63.4444 111.864 60.3084 111.736 56.7244 111.48C53.1404 111.288 49.6204 110.84 46.1644 110.136V45.336C49.6204 44.696 53.2044 44.28 56.9164 44.088C60.6924 43.832 63.9244 43.704 66.6124 43.704C72.3084 43.704 77.4604 44.344 82.0684 45.624C86.7404 46.904 90.7404 48.92 94.0684 51.672C97.3964 54.424 99.9564 57.944 101.748 62.232C103.54 66.52 104.436 71.672 104.436 77.688ZM147.282 112.344C136.466 112.344 128.21 109.336 122.514 103.32C116.882 97.304 114.066 88.76 114.066 77.688C114.066 72.184 114.93 67.288 116.658 63C118.386 58.648 120.754 55 123.762 52.056C126.77 49.048 130.354 46.776 134.514 45.24C138.674 43.704 143.186 42.936 148.05 42.936C150.866 42.936 153.426 43.16 155.73 43.608C158.034 43.992 160.05 44.472 161.778 45.048C163.506 45.56 164.946 46.104 166.098 46.68C167.25 47.256 168.082 47.704 168.594 48.024L164.274 60.12C162.226 59.032 159.826 58.104 157.074 57.336C154.386 56.568 151.314 56.184 147.858 56.184C145.554 56.184 143.282 56.568 141.042 57.336C138.866 58.104 136.914 59.352 135.186 61.08C133.522 62.744 132.178 64.92 131.154 67.608C130.13 70.296 129.618 73.56 129.618 77.4C129.618 80.472 129.938 83.352 130.578 86.04C131.282 88.664 132.37 90.936 133.842 92.856C135.378 94.776 137.362 96.312 139.794 97.464C142.226 98.552 145.17 99.096 148.626 99.096C150.802 99.096 152.754 98.968 154.482 98.712C156.21 98.456 157.746 98.168 159.09 97.848C160.434 97.464 161.618 97.048 162.642 96.6C163.666 96.152 164.594 95.736 165.426 95.352L169.554 107.352C167.442 108.632 164.466 109.784 160.626 110.808C156.786 111.832 152.338 112.344 147.282 112.344Z" fill="#EBEBEB"/>
</g>
<defs>
<filter id="filter0_d_955_4" x="42.1644" y="42.9355" width="131.389" height="77.4082" filterUnits="userSpaceOnUse" color-interpolation-filters="sRGB">
<feFlood flood-opacity="0" result="BackgroundImageFix"/>
<feColorMatrix in="SourceAlpha" type="matrix" values="0 0 0 0 0 0 0 0 0 0 0 0 0 0 0 0 0 0 127 0" result="hardAlpha"/>
<feOffset dy="4"/>
<feGaussianBlur stdDeviation="2"/>
<feComposite in2="hardAlpha" operator="out"/>
<feColorMatrix type="matrix" values="0 0 0 0 0 0 0 0 0 0 0 0 0 0 0 0 0 0 0.25 0"/>
<feBlend mode="normal" in2="BackgroundImageFix" result="effect1_dropShadow_955_4"/>
<feBlend mode="normal" in="SourceGraphic" in2="effect1_dropShadow_955_4" result="shape"/>
</filter>
</defs>
</svg>
